<svg width="379" height="307" viewBox="0 0 379 307" fill="none" xmlns="http://www.w3.org/2000/svg">
<g clip-path="url(#clip0_47_285)">
<path d="M220.767 54.1205C227.87 54.1205 233.628 47.7074 233.628 39.7963C233.628 31.8853 227.87 25.4721 220.767 25.4721C213.664 25.4721 207.906 31.8853 207.906 39.7963C207.906 47.7074 213.664 54.1205 220.767 54.1205Z" fill="#F2F2F2"/>
<path d="M320.537 266.708C339.654 250.491 348.784 223.24 343.068 197.244C342.926 196.598 342.776 195.954 342.618 195.311C338.829 179.88 329.453 165.215 315.788 160.284C304.315 156.144 291.791 159.328 279.821 157.681C256.324 154.45 238.107 133.275 225.289 111.105C212.471 88.9353 202.62 64.1193 185.588 45.8037C157.513 15.6136 111.715 9.11361 76.9066 28.7651C42.0977 48.4167 19.9248 92.0153 20.8704 135.467C21.8161 178.918 44.977 220.461 78.6124 242.502C90.9688 250.599 105.26 256.335 119.483 254.328C131.823 252.586 143.037 245.201 155.319 243.009C174.631 239.561 193.819 249.286 210.522 260.618C227.225 271.949 243.358 285.381 262.339 290.634C280.769 295.735 303.602 281.074 320.537 266.708Z" fill="#F2F2F2"/>
<path d="M293.07 29.6776C292.651 29.3664 292.227 29.0714 291.808 28.7709C279.694 20.1422 266.71 13.1323 253.124 7.8861L249.974 56.2866H230.003V0.820774C228.746 0.531079 227.479 0.25748 226.212 -2.67029e-05V56.2866H202.479C189.414 56.2866 176.884 50.5062 167.646 40.217C158.408 29.9279 153.217 15.9728 153.217 1.42169V1.42164C151.946 1.72742 150.684 2.05467 149.422 2.40338V56.2866H130.092L127.091 10.1339C113.129 16.0975 99.8742 23.9399 87.6214 33.4865C87.4095 33.6475 87.1975 33.8138 86.9904 33.9747C85.9259 34.8063 84.8758 35.6539 83.8306 36.5122V221.16H140.8L139.793 205.63L134.253 120.357H245.807L240.268 205.63L239.261 221.16H295.599V31.5445C294.761 30.9115 293.918 30.2892 293.07 29.6776ZM149.422 106.275H133.338L130.366 60.514H149.422V106.275ZM226.212 106.275H199.199V105.368C199.199 104.933 199.122 104.501 198.972 104.098C198.822 103.696 198.603 103.33 198.326 103.022C198.049 102.714 197.72 102.47 197.358 102.304C196.996 102.137 196.609 102.052 196.218 102.053H184.474C184.083 102.053 183.696 102.138 183.335 102.305C182.973 102.472 182.645 102.716 182.369 103.024C182.092 103.332 181.873 103.697 181.723 104.099C181.574 104.502 181.497 104.933 181.497 105.368V106.275H153.217V60.514H226.212V106.275ZM230.003 106.275V60.514H249.699L246.727 106.275H230.003Z" fill="#3F3D56"/>
<path d="M0 232.985C4.18453 238.507 8.71057 243.696 13.545 248.516L365.455 249.052C370.289 244.233 374.816 239.043 379 233.521L0 232.985Z" fill="#3F3D56"/>
<path d="M238.642 183.254V229.232C238.642 229.818 238.851 230.38 239.223 230.794C239.595 231.208 240.1 231.441 240.626 231.442H301.802C302.328 231.441 302.832 231.208 303.204 230.794C303.576 230.38 303.786 229.818 303.786 229.232V183.254C303.785 182.669 303.575 182.108 303.203 181.694C302.832 181.28 302.328 181.047 301.802 181.047H240.626C240.1 181.047 239.596 181.28 239.224 181.694C238.852 182.108 238.643 182.669 238.642 183.254V183.254Z" fill="#3F3D56"/>
<path d="M240.077 183.826V228.665C240.077 228.978 240.189 229.278 240.388 229.499C240.587 229.72 240.856 229.845 241.137 229.846H301.293C301.574 229.845 301.843 229.72 302.042 229.499C302.241 229.278 302.352 228.978 302.353 228.665V183.826C302.353 183.513 302.241 183.212 302.043 182.99C301.844 182.768 301.574 182.643 301.293 182.643H241.137C240.856 182.643 240.586 182.768 240.387 182.99C240.188 183.212 240.077 183.513 240.077 183.826V183.826Z" fill="#BF0628"/>
<path d="M237.362 238.199C237.474 238.355 237.617 238.481 237.779 238.568C237.941 238.654 238.118 238.699 238.298 238.698H303.804C303.983 238.697 304.16 238.653 304.321 238.567C304.483 238.481 304.625 238.356 304.738 238.201C304.851 238.046 304.931 237.865 304.974 237.671C305.016 237.477 305.019 237.275 304.982 237.08L303.965 231.7C303.923 231.481 303.832 231.277 303.701 231.106C303.57 230.936 303.403 230.805 303.214 230.725C303.078 230.666 302.933 230.635 302.787 230.635H239.311C239.165 230.635 239.02 230.666 238.883 230.725C238.695 230.805 238.528 230.936 238.397 231.106C238.266 231.277 238.175 231.481 238.133 231.7L237.116 237.08C237.08 237.275 237.083 237.477 237.126 237.67C237.168 237.864 237.249 238.044 237.362 238.199V238.199Z" fill="#0066CC"/>
<path d="M300.539 232.952H302.086C302.216 232.952 302.322 232.835 302.322 232.69V231.866C302.322 231.721 302.216 231.604 302.086 231.604H300.539C300.409 231.604 300.304 231.721 300.304 231.866V232.69C300.304 232.835 300.409 232.952 300.539 232.952Z" fill="#3F3D56"/>
<path d="M296.504 232.952H298.051C298.181 232.952 298.286 232.835 298.286 232.69V231.866C298.286 231.721 298.181 231.604 298.051 231.604H296.504C296.374 231.604 296.269 231.721 296.269 231.866V232.69C296.269 232.835 296.374 232.952 296.504 232.952Z" fill="#3F3D56"/>
<path d="M292.469 232.952H294.016C294.146 232.952 294.251 232.835 294.251 232.69V231.866C294.251 231.721 294.146 231.604 294.016 231.604H292.469C292.339 231.604 292.234 231.721 292.234 231.866V232.69C292.234 232.835 292.339 232.952 292.469 232.952Z" fill="#3F3D56"/>
<path d="M288.434 232.952H289.981C290.111 232.952 290.216 232.835 290.216 232.69V231.866C290.216 231.721 290.111 231.604 289.981 231.604H288.434C288.304 231.604 288.199 231.721 288.199 231.866V232.69C288.199 232.835 288.304 232.952 288.434 232.952Z" fill="#3F3D56"/>
<path d="M284.399 232.952H285.946C286.076 232.952 286.181 232.835 286.181 232.69V231.866C286.181 231.721 286.076 231.604 285.946 231.604H284.399C284.269 231.604 284.164 231.721 284.164 231.866V232.69C284.164 232.835 284.269 232.952 284.399 232.952Z" fill="#3F3D56"/>
<path d="M280.364 232.952H281.911C282.041 232.952 282.146 232.835 282.146 232.69V231.866C282.146 231.721 282.041 231.604 281.911 231.604H280.364C280.234 231.604 280.129 231.721 280.129 231.866V232.69C280.129 232.835 280.234 232.952 280.364 232.952Z" fill="#3F3D56"/>
<path d="M276.329 232.952H277.876C278.006 232.952 278.111 232.835 278.111 232.69V231.866C278.111 231.721 278.006 231.604 277.876 231.604H276.329C276.199 231.604 276.094 231.721 276.094 231.866V232.69C276.094 232.835 276.199 232.952 276.329 232.952Z" fill="#3F3D56"/>
<path d="M272.294 232.952H273.841C273.971 232.952 274.076 232.835 274.076 232.69V231.866C274.076 231.721 273.971 231.604 273.841 231.604H272.294C272.164 231.604 272.059 231.721 272.059 231.866V232.69C272.059 232.835 272.164 232.952 272.294 232.952Z" fill="#3F3D56"/>
<path d="M268.259 232.952H269.806C269.936 232.952 270.041 232.835 270.041 232.69V231.866C270.041 231.721 269.936 231.604 269.806 231.604H268.259C268.129 231.604 268.023 231.721 268.023 231.866V232.69C268.023 232.835 268.129 232.952 268.259 232.952Z" fill="#3F3D56"/>
<path d="M264.223 232.952H265.771C265.901 232.952 266.006 232.835 266.006 232.69V231.866C266.006 231.721 265.901 231.604 265.771 231.604H264.223C264.094 231.604 263.988 231.721 263.988 231.866V232.69C263.988 232.835 264.094 232.952 264.223 232.952Z" fill="#3F3D56"/>
<path d="M260.188 232.952H261.736C261.866 232.952 261.971 232.835 261.971 232.69V231.866C261.971 231.721 261.866 231.604 261.736 231.604H260.188C260.059 231.604 259.953 231.721 259.953 231.866V232.69C259.953 232.835 260.059 232.952 260.188 232.952Z" fill="#3F3D56"/>
<path d="M256.153 232.952H257.701C257.83 232.952 257.936 232.835 257.936 232.69V231.866C257.936 231.721 257.83 231.604 257.701 231.604H256.153C256.023 231.604 255.918 231.721 255.918 231.866V232.69C255.918 232.835 256.023 232.952 256.153 232.952Z" fill="#3F3D56"/>
<path d="M252.118 232.952H253.665C253.795 232.952 253.901 232.835 253.901 232.69V231.866C253.901 231.721 253.795 231.604 253.665 231.604H252.118C251.988 231.604 251.883 231.721 251.883 231.866V232.69C251.883 232.835 251.988 232.952 252.118 232.952Z" fill="#3F3D56"/>
<path d="M248.083 232.952H249.63C249.76 232.952 249.866 232.835 249.866 232.69V231.866C249.866 231.721 249.76 231.604 249.63 231.604H248.083C247.953 231.604 247.848 231.721 247.848 231.866V232.69C247.848 232.835 247.953 232.952 248.083 232.952Z" fill="#3F3D56"/>
<path d="M244.048 232.952H245.595C245.725 232.952 245.831 232.835 245.831 232.69V231.866C245.831 231.721 245.725 231.604 245.595 231.604H244.048C243.918 231.604 243.813 231.721 243.813 231.866V232.69C243.813 232.835 243.918 232.952 244.048 232.952Z" fill="#3F3D56"/>
<path d="M240.013 232.952H241.56C241.69 232.952 241.795 232.835 241.795 232.69V231.866C241.795 231.721 241.69 231.604 241.56 231.604H240.013C239.883 231.604 239.778 231.721 239.778 231.866V232.69C239.778 232.835 239.883 232.952 240.013 232.952Z" fill="#3F3D56"/>
<path d="M300.587 235.199H302.134C302.264 235.199 302.369 235.082 302.369 234.937V234.113C302.369 233.968 302.264 233.851 302.134 233.851H300.587C300.457 233.851 300.352 233.968 300.352 234.113V234.937C300.352 235.082 300.457 235.199 300.587 235.199Z" fill="#3F3D56"/>
<path d="M296.552 235.199H298.099C298.229 235.199 298.334 235.082 298.334 234.937V234.113C298.334 233.968 298.229 233.851 298.099 233.851H296.552C296.422 233.851 296.317 233.968 296.317 234.113V234.937C296.317 235.082 296.422 235.199 296.552 235.199Z" fill="#3F3D56"/>
<path d="M292.517 235.199H294.064C294.194 235.199 294.299 235.082 294.299 234.937V234.113C294.299 233.968 294.194 233.851 294.064 233.851H292.517C292.387 233.851 292.281 233.968 292.281 234.113V234.937C292.281 235.082 292.387 235.199 292.517 235.199Z" fill="#3F3D56"/>
<path d="M288.482 235.199H290.029C290.159 235.199 290.264 235.082 290.264 234.937V234.113C290.264 233.968 290.159 233.851 290.029 233.851H288.482C288.352 233.851 288.246 233.968 288.246 234.113V234.937C288.246 235.082 288.352 235.199 288.482 235.199Z" fill="#3F3D56"/>
<path d="M284.447 235.199H285.994C286.124 235.199 286.229 235.082 286.229 234.937V234.113C286.229 233.968 286.124 233.851 285.994 233.851H284.447C284.317 233.851 284.211 233.968 284.211 234.113V234.937C284.211 235.082 284.317 235.199 284.447 235.199Z" fill="#3F3D56"/>
<path d="M280.411 235.199H281.959C282.089 235.199 282.194 235.082 282.194 234.937V234.113C282.194 233.968 282.089 233.851 281.959 233.851H280.411C280.282 233.851 280.176 233.968 280.176 234.113V234.937C280.176 235.082 280.282 235.199 280.411 235.199Z" fill="#3F3D56"/>
<path d="M276.376 235.199H277.924C278.054 235.199 278.159 235.082 278.159 234.937V234.113C278.159 233.968 278.054 233.851 277.924 233.851H276.376C276.247 233.851 276.141 233.968 276.141 234.113V234.937C276.141 235.082 276.247 235.199 276.376 235.199Z" fill="#3F3D56"/>
<path d="M272.341 235.199H273.889C274.018 235.199 274.124 235.082 274.124 234.937V234.113C274.124 233.968 274.018 233.851 273.889 233.851H272.341C272.211 233.851 272.106 233.968 272.106 234.113V234.937C272.106 235.082 272.211 235.199 272.341 235.199Z" fill="#3F3D56"/>
<path d="M268.306 235.199H269.853C269.983 235.199 270.089 235.082 270.089 234.937V234.113C270.089 233.968 269.983 233.851 269.853 233.851H268.306C268.176 233.851 268.071 233.968 268.071 234.113V234.937C268.071 235.082 268.176 235.199 268.306 235.199Z" fill="#3F3D56"/>
<path d="M264.271 235.199H265.818C265.948 235.199 266.054 235.082 266.054 234.937V234.113C266.054 233.968 265.948 233.851 265.818 233.851H264.271C264.141 233.851 264.036 233.968 264.036 234.113V234.937C264.036 235.082 264.141 235.199 264.271 235.199Z" fill="#3F3D56"/>
<path d="M260.236 235.199H261.783C261.913 235.199 262.018 235.082 262.018 234.937V234.113C262.018 233.968 261.913 233.851 261.783 233.851H260.236C260.106 233.851 260.001 233.968 260.001 234.113V234.937C260.001 235.082 260.106 235.199 260.236 235.199Z" fill="#3F3D56"/>
<path d="M256.201 235.199H257.748C257.878 235.199 257.983 235.082 257.983 234.937V234.113C257.983 233.968 257.878 233.851 257.748 233.851H256.201C256.071 233.851 255.966 233.968 255.966 234.113V234.937C255.966 235.082 256.071 235.199 256.201 235.199Z" fill="#3F3D56"/>
<path d="M252.166 235.199H253.713C253.843 235.199 253.948 235.082 253.948 234.937V234.113C253.948 233.968 253.843 233.851 253.713 233.851H252.166C252.036 233.851 251.931 233.968 251.931 234.113V234.937C251.931 235.082 252.036 235.199 252.166 235.199Z" fill="#3F3D56"/>
<path d="M248.131 235.199H249.678C249.808 235.199 249.913 235.082 249.913 234.937V234.113C249.913 233.968 249.808 233.851 249.678 233.851H248.131C248.001 233.851 247.896 233.968 247.896 234.113V234.937C247.896 235.082 248.001 235.199 248.131 235.199Z" fill="#3F3D56"/>
<path d="M244.096 235.199H245.643C245.773 235.199 245.878 235.082 245.878 234.937V234.113C245.878 233.968 245.773 233.851 245.643 233.851H244.096C243.966 233.851 243.861 233.968 243.861 234.113V234.937C243.861 235.082 243.966 235.199 244.096 235.199Z" fill="#3F3D56"/>
<path d="M240.061 235.199H241.608C241.738 235.199 241.843 235.082 241.843 234.937V234.113C241.843 233.968 241.738 233.851 241.608 233.851H240.061C239.931 233.851 239.826 233.968 239.826 234.113V234.937C239.826 235.082 239.931 235.199 240.061 235.199Z" fill="#3F3D56"/>
<path d="M267.096 237.896H282.766C282.896 237.896 283.001 237.778 283.001 237.634V236.809C283.001 236.665 282.896 236.547 282.766 236.547H267.096C266.966 236.547 266.861 236.665 266.861 236.809V237.634C266.861 237.778 266.966 237.896 267.096 237.896Z" fill="#3F3D56"/>
<path d="M250.494 192.452H249.124C248.709 192.452 248.372 192.827 248.372 193.29C248.372 193.752 248.709 194.127 249.124 194.127H250.494C250.909 194.127 251.246 193.752 251.246 193.29C251.246 192.827 250.909 192.452 250.494 192.452Z" fill="white"/>
<path d="M266.16 192.452H264.79C264.375 192.452 264.038 192.827 264.038 193.29C264.038 193.752 264.375 194.127 264.79 194.127H266.16C266.575 194.127 266.912 193.752 266.912 193.29C266.912 192.827 266.575 192.452 266.16 192.452Z" fill="white"/>
<path d="M270.598 192.452H269.229C268.813 192.452 268.477 192.827 268.477 193.29C268.477 193.752 268.813 194.127 269.229 194.127H270.598C271.014 194.127 271.35 193.752 271.35 193.29C271.35 192.827 271.014 192.452 270.598 192.452Z" fill="white"/>
<path d="M261.899 192.313H253.385C252.97 192.313 252.633 192.688 252.633 193.15C252.633 193.613 252.97 193.988 253.385 193.988H261.899C262.314 193.988 262.651 193.613 262.651 193.15C262.651 192.688 262.314 192.313 261.899 192.313Z" fill="white"/>
<path d="M282.786 192.313H274.273C273.858 192.313 273.521 192.688 273.521 193.15C273.521 193.613 273.858 193.988 274.273 193.988H282.786C283.202 193.988 283.538 193.613 283.538 193.15C283.538 192.688 283.202 192.313 282.786 192.313Z" fill="white"/>
<path d="M254.671 196.233H253.302C252.886 196.233 252.55 196.608 252.55 197.07C252.55 197.533 252.886 197.908 253.302 197.908H254.671C255.087 197.908 255.423 197.533 255.423 197.07C255.423 196.608 255.087 196.233 254.671 196.233Z" fill="white"/>
<path d="M270.337 196.233H268.968C268.552 196.233 268.216 196.608 268.216 197.07C268.216 197.533 268.552 197.908 268.968 197.908H270.337C270.753 197.908 271.089 197.533 271.089 197.07C271.089 196.608 270.753 196.233 270.337 196.233Z" fill="white"/>
<path d="M274.776 196.233H273.406C272.991 196.233 272.654 196.608 272.654 197.07C272.654 197.533 272.991 197.908 273.406 197.908H274.776C275.191 197.908 275.528 197.533 275.528 197.07C275.528 196.608 275.191 196.233 274.776 196.233Z" fill="white"/>
<path d="M266.076 196.093H257.563C257.148 196.093 256.811 196.468 256.811 196.93C256.811 197.393 257.148 197.768 257.563 197.768H266.076C266.491 197.768 266.828 197.393 266.828 196.93C266.828 196.468 266.491 196.093 266.076 196.093Z" fill="white"/>
<path d="M286.964 196.093H278.451C278.035 196.093 277.699 196.468 277.699 196.93C277.699 197.393 278.035 197.768 278.451 197.768H286.964C287.379 197.768 287.716 197.393 287.716 196.93C287.716 196.468 287.379 196.093 286.964 196.093Z" fill="white"/>
<path d="M258.849 200.013H257.479C257.064 200.013 256.727 200.388 256.727 200.85C256.727 201.313 257.064 201.688 257.479 201.688H258.849C259.264 201.688 259.601 201.313 259.601 200.85C259.601 200.388 259.264 200.013 258.849 200.013Z" fill="white"/>
<path d="M274.515 200.013H273.145C272.73 200.013 272.393 200.388 272.393 200.85C272.393 201.313 272.73 201.688 273.145 201.688H274.515C274.93 201.688 275.267 201.313 275.267 200.85C275.267 200.388 274.93 200.013 274.515 200.013Z" fill="white"/>
<path d="M278.954 200.013H277.584C277.169 200.013 276.832 200.388 276.832 200.85C276.832 201.313 277.169 201.688 277.584 201.688H278.954C279.369 201.688 279.706 201.313 279.706 200.85C279.706 200.388 279.369 200.013 278.954 200.013Z" fill="white"/>
<path d="M270.254 199.873H261.74C261.325 199.873 260.989 200.248 260.989 200.711C260.989 201.173 261.325 201.548 261.74 201.548H270.254C270.669 201.548 271.006 201.173 271.006 200.711C271.006 200.248 270.669 199.873 270.254 199.873Z" fill="white"/>
<path d="M291.142 199.873H282.628C282.213 199.873 281.876 200.248 281.876 200.711C281.876 201.173 282.213 201.548 282.628 201.548H291.142C291.557 201.548 291.893 201.173 291.893 200.711C291.893 200.248 291.557 199.873 291.142 199.873Z" fill="white"/>
<path d="M263.027 203.793H261.657C261.242 203.793 260.905 204.168 260.905 204.631C260.905 205.093 261.242 205.468 261.657 205.468H263.027C263.442 205.468 263.779 205.093 263.779 204.631C263.779 204.168 263.442 203.793 263.027 203.793Z" fill="white"/>
<path d="M278.692 203.793H277.323C276.907 203.793 276.571 204.168 276.571 204.631C276.571 205.093 276.907 205.468 277.323 205.468H278.692C279.108 205.468 279.444 205.093 279.444 204.631C279.444 204.168 279.108 203.793 278.692 203.793Z" fill="white"/>
<path d="M283.131 203.793H281.761C281.346 203.793 281.009 204.168 281.009 204.631C281.009 205.093 281.346 205.468 281.761 205.468H283.131C283.546 205.468 283.883 205.093 283.883 204.631C283.883 204.168 283.546 203.793 283.131 203.793Z" fill="white"/>
<path d="M274.431 203.654H265.918C265.503 203.654 265.166 204.029 265.166 204.491C265.166 204.954 265.503 205.329 265.918 205.329H274.431C274.847 205.329 275.183 204.954 275.183 204.491C275.183 204.029 274.847 203.654 274.431 203.654Z" fill="white"/>
<path d="M266.16 218.825H264.79C264.375 218.825 264.038 219.2 264.038 219.663C264.038 220.125 264.375 220.5 264.79 220.5H266.16C266.575 220.5 266.912 220.125 266.912 219.663C266.912 219.2 266.575 218.825 266.16 218.825Z" fill="white"/>
<path d="M270.598 218.825H269.229C268.813 218.825 268.477 219.2 268.477 219.663C268.477 220.125 268.813 220.5 269.229 220.5H270.598C271.014 220.5 271.35 220.125 271.35 219.663C271.35 219.2 271.014 218.825 270.598 218.825Z" fill="white"/>
<path d="M282.786 218.965H274.273C273.858 218.965 273.521 219.34 273.521 219.803C273.521 220.265 273.858 220.64 274.273 220.64H282.786C283.202 220.64 283.538 220.265 283.538 219.803C283.538 219.34 283.202 218.965 282.786 218.965Z" fill="white"/>
<path d="M250.494 218.825H249.124C248.709 218.825 248.372 219.2 248.372 219.663C248.372 220.125 248.709 220.5 249.124 220.5H250.494C250.909 220.5 251.246 220.125 251.246 219.663C251.246 219.2 250.909 218.825 250.494 218.825Z" fill="white"/>
<path d="M261.899 218.965H253.385C252.97 218.965 252.633 219.34 252.633 219.803C252.633 220.265 252.97 220.64 253.385 220.64H261.899C262.314 220.64 262.651 220.265 262.651 219.803C262.651 219.34 262.314 218.965 261.899 218.965Z" fill="white"/>
<path d="M254.671 215.045H253.302C252.886 215.045 252.55 215.42 252.55 215.883C252.55 216.345 252.886 216.72 253.302 216.72H254.671C255.087 216.72 255.423 216.345 255.423 215.883C255.423 215.42 255.087 215.045 254.671 215.045Z" fill="white"/>
<path d="M270.337 215.045H268.968C268.552 215.045 268.216 215.42 268.216 215.883C268.216 216.345 268.552 216.72 268.968 216.72H270.337C270.753 216.72 271.089 216.345 271.089 215.883C271.089 215.42 270.753 215.045 270.337 215.045Z" fill="white"/>
<path d="M274.776 215.045H273.406C272.991 215.045 272.654 215.42 272.654 215.883C272.654 216.345 272.991 216.72 273.406 216.72H274.776C275.191 216.72 275.528 216.345 275.528 215.883C275.528 215.42 275.191 215.045 274.776 215.045Z" fill="white"/>
<path d="M266.076 215.185H257.563C257.148 215.185 256.811 215.56 256.811 216.022C256.811 216.485 257.148 216.86 257.563 216.86H266.076C266.491 216.86 266.828 216.485 266.828 216.022C266.828 215.56 266.491 215.185 266.076 215.185Z" fill="white"/>
<path d="M258.849 211.265H257.479C257.064 211.265 256.727 211.64 256.727 212.102C256.727 212.565 257.064 212.94 257.479 212.94H258.849C259.264 212.94 259.601 212.565 259.601 212.102C259.601 211.64 259.264 211.265 258.849 211.265Z" fill="white"/>
<path d="M274.515 211.265H273.145C272.73 211.265 272.393 211.64 272.393 212.102C272.393 212.565 272.73 212.94 273.145 212.94H274.515C274.93 212.94 275.267 212.565 275.267 212.102C275.267 211.64 274.93 211.265 274.515 211.265Z" fill="white"/>
<path d="M278.954 211.265H277.584C277.169 211.265 276.832 211.64 276.832 212.102C276.832 212.565 277.169 212.94 277.584 212.94H278.954C279.369 212.94 279.706 212.565 279.706 212.102C279.706 211.64 279.369 211.265 278.954 211.265Z" fill="white"/>
<path d="M270.254 211.404H261.74C261.325 211.404 260.989 211.779 260.989 212.242C260.989 212.704 261.325 213.079 261.74 213.079H270.254C270.669 213.079 271.006 212.704 271.006 212.242C271.006 211.779 270.669 211.404 270.254 211.404Z" fill="white"/>
<path d="M263.027 207.484H261.657C261.242 207.484 260.905 207.859 260.905 208.322C260.905 208.784 261.242 209.159 261.657 209.159H263.027C263.442 209.159 263.779 208.784 263.779 208.322C263.779 207.859 263.442 207.484 263.027 207.484Z" fill="white"/>
<path d="M278.692 207.484H277.323C276.907 207.484 276.571 207.859 276.571 208.322C276.571 208.784 276.907 209.159 277.323 209.159H278.692C279.108 209.159 279.444 208.784 279.444 208.322C279.444 207.859 279.108 207.484 278.692 207.484Z" fill="white"/>
<path d="M283.131 207.484H281.761C281.346 207.484 281.009 207.859 281.009 208.322C281.009 208.784 281.346 209.159 281.761 209.159H283.131C283.546 209.159 283.883 208.784 283.883 208.322C283.883 207.859 283.546 207.484 283.131 207.484Z" fill="white"/>
<path d="M274.431 207.624H265.918C265.503 207.624 265.166 207.999 265.166 208.462C265.166 208.924 265.503 209.299 265.918 209.299H274.431C274.847 209.299 275.183 208.924 275.183 208.462C275.183 207.999 274.847 207.624 274.431 207.624Z" fill="white"/>
<path d="M243.212 263.129L236.781 251.809L256.965 233.889L265.296 223.61C266.378 222.274 267.756 221.279 269.292 220.722C270.828 220.166 272.469 220.068 274.049 220.439C275.63 220.81 277.096 221.636 278.3 222.835C279.504 224.034 280.404 225.565 280.911 227.273C281.662 229.804 281.501 232.562 280.461 234.963C279.421 237.364 277.584 239.222 275.338 240.143L262.164 245.549L243.212 263.129Z" fill="#FFB6B6"/>
<path d="M92.3344 181.049V236.069H126.943V181.049C126.944 180.653 126.831 180.268 126.62 179.949C126.409 179.63 126.112 179.395 125.773 179.279C125.613 179.22 125.445 179.191 125.277 179.193H94.0058C93.7866 179.192 93.5694 179.24 93.3668 179.333C93.1641 179.426 92.9799 179.563 92.8247 179.735C92.6694 179.907 92.5462 180.112 92.4621 180.338C92.378 180.563 92.3346 180.805 92.3344 181.049V181.049ZM105.841 199.954C105.85 198.869 106.243 197.833 106.935 197.069C107.627 196.306 108.561 195.877 109.535 195.877C110.509 195.877 111.444 196.306 112.136 197.069C112.828 197.833 113.221 198.869 113.23 199.954V206.338C113.225 207.426 112.833 208.467 112.141 209.234C111.449 210.001 110.512 210.432 109.535 210.432C108.559 210.432 107.622 210.001 106.93 209.234C106.237 208.467 105.846 207.426 105.841 206.338V199.954Z" fill="#0066CC"/>
<path d="M92.2284 234.31V239.615C92.2292 239.89 92.3272 240.154 92.5013 240.349C92.6753 240.543 92.9113 240.654 93.158 240.656H126.12C126.367 240.655 126.603 240.545 126.778 240.35C126.952 240.155 127.05 239.891 127.049 239.615V234.31H92.2284Z" fill="#3F3D56"/>
<path d="M37.8894 98.1533V198.613C37.8903 199.893 38.3473 201.121 39.1602 202.026C39.973 202.931 41.0751 203.44 42.2246 203.441H175.892C177.042 203.44 178.144 202.931 178.957 202.026C179.77 201.121 180.227 199.893 180.228 198.613V98.1533C180.225 96.8742 179.767 95.6484 178.955 94.7445C178.142 93.8405 177.041 93.3321 175.892 93.3304H42.2246C41.0761 93.3321 39.975 93.8405 39.1625 94.7445C38.3499 95.6485 37.8921 96.8742 37.8894 98.1533Z" fill="#3F3D56"/>
<path d="M41.0251 99.4032V197.374C41.0262 198.058 41.2706 198.713 41.7049 199.197C42.1392 199.681 42.7279 199.953 43.3421 199.954H174.78C175.394 199.953 175.983 199.681 176.417 199.197C176.851 198.713 177.096 198.058 177.097 197.374V99.4032C177.097 98.7184 176.853 98.0615 176.418 97.5768C175.984 97.092 175.395 96.8189 174.78 96.8174H43.3421C42.7271 96.8189 42.1379 97.092 41.7035 97.5768C41.2692 98.0615 41.0252 98.7184 41.0251 99.4032Z" fill="white"/>
<path d="M65.4178 240.297C65.5515 240.484 65.7216 240.634 65.9151 240.737C66.1087 240.84 66.3207 240.893 66.5353 240.892H144.732C144.946 240.892 145.157 240.839 145.35 240.736C145.543 240.633 145.713 240.484 145.848 240.299C145.983 240.114 146.079 239.898 146.129 239.667C146.179 239.435 146.183 239.194 146.139 238.961L144.925 232.539C144.875 232.278 144.766 232.034 144.61 231.831C144.453 231.627 144.254 231.471 144.029 231.375C143.866 231.304 143.693 231.268 143.518 231.268H67.7443C67.5696 231.268 67.3964 231.304 67.2337 231.375C67.0091 231.471 66.8094 231.627 66.6529 231.83C66.4964 232.034 66.3881 232.278 66.3378 232.539L65.1239 238.961C65.0807 239.194 65.0847 239.435 65.1355 239.666C65.1864 239.897 65.2828 240.112 65.4178 240.297Z" fill="#0066CC"/>
<path d="M170.514 110.313H47.5285C47.4007 110.31 47.279 110.251 47.1896 110.15C47.1002 110.048 47.0502 109.911 47.0502 109.769C47.0502 109.626 47.1002 109.489 47.1896 109.388C47.279 109.286 47.4007 109.227 47.5285 109.224H170.514C170.642 109.227 170.764 109.286 170.853 109.388C170.942 109.489 170.992 109.626 170.992 109.769C170.992 109.911 170.942 110.048 170.853 110.15C170.764 110.251 170.642 110.31 170.514 110.313V110.313Z" fill="#3F3D56"/>
<path d="M55.9003 106.443C57.4833 106.443 58.7665 104.982 58.7665 103.179C58.7665 101.377 57.4833 99.916 55.9003 99.916C54.3173 99.916 53.0341 101.377 53.0341 103.179C53.0341 104.982 54.3173 106.443 55.9003 106.443Z" fill="#3F3D56"/>
<path d="M65.8018 106.443C67.3848 106.443 68.668 104.982 68.668 103.179C68.668 101.377 67.3848 99.916 65.8018 99.916C64.2188 99.916 62.9355 101.377 62.9355 103.179C62.9355 104.982 64.2188 106.443 65.8018 106.443Z" fill="#3F3D56"/>
<path d="M75.7034 106.443C77.2864 106.443 78.5696 104.982 78.5696 103.179C78.5696 101.377 77.2864 99.916 75.7034 99.916C74.1204 99.916 72.8372 101.377 72.8372 103.179C72.8372 104.982 74.1204 106.443 75.7034 106.443Z" fill="#3F3D56"/>
<path d="M164.552 100.723H157.519C157.38 100.727 157.248 100.791 157.151 100.901C157.054 101.012 156.999 101.161 156.999 101.316C156.999 101.471 157.054 101.619 157.151 101.73C157.248 101.841 157.38 101.905 157.519 101.909H164.552C164.692 101.906 164.825 101.843 164.923 101.732C165.022 101.621 165.077 101.472 165.077 101.316C165.077 101.16 165.022 101.01 164.923 100.9C164.825 100.789 164.692 100.725 164.552 100.723Z" fill="#3F3D56"/>
<path d="M164.552 102.949H157.519C157.38 102.953 157.248 103.017 157.15 103.128C157.053 103.238 156.999 103.387 156.999 103.542C156.999 103.697 157.053 103.846 157.15 103.957C157.248 104.068 157.38 104.132 157.519 104.135H164.552C164.692 104.133 164.826 104.07 164.924 103.959C165.022 103.848 165.078 103.698 165.078 103.542C165.078 103.386 165.022 103.236 164.924 103.125C164.826 103.015 164.692 102.951 164.552 102.949V102.949Z" fill="#3F3D56"/>
<path d="M164.552 105.176H157.519C157.38 105.179 157.248 105.243 157.151 105.354C157.054 105.465 156.999 105.614 156.999 105.768C156.999 105.923 157.054 106.072 157.151 106.183C157.248 106.294 157.38 106.358 157.519 106.361H164.552C164.692 106.359 164.825 106.296 164.923 106.185C165.022 106.074 165.077 105.924 165.077 105.768C165.077 105.613 165.022 105.463 164.923 105.352C164.825 105.241 164.692 105.178 164.552 105.176V105.176Z" fill="#3F3D56"/>
<path d="M334.095 236.638C334.307 237.326 334.71 237.922 335.245 238.339C335.78 238.757 336.42 238.975 337.074 238.962L349.834 238.596C350.492 238.582 351.128 238.331 351.648 237.88C352.167 237.43 352.541 236.805 352.715 236.098L354.521 214.592C355.162 214.915 355.859 215.075 356.562 215.059C357.173 215.042 357.775 214.891 358.334 214.615C358.892 214.339 359.397 213.943 359.818 213.45C360.239 212.956 360.569 212.376 360.788 211.74C361.008 211.105 361.113 210.428 361.098 209.748C361.082 209.067 360.947 208.397 360.699 207.775C360.451 207.153 360.095 206.591 359.653 206.122C359.21 205.653 358.688 205.286 358.118 205.041C357.548 204.796 356.94 204.679 356.329 204.696C356.048 204.695 355.767 204.728 355.492 204.793C355.193 204.433 354.83 204.147 354.426 203.952C354.021 203.758 353.585 203.66 353.145 203.665L333.516 204.23C333.353 204.236 333.191 204.259 333.032 204.297C332.601 204.386 332.193 204.577 331.834 204.857C331.476 205.137 331.175 205.499 330.953 205.919C330.73 206.339 330.591 206.807 330.545 207.292C330.499 207.777 330.546 208.267 330.684 208.73L334.095 236.638ZM354.891 213.132L356.176 208.007C356.322 207.415 356.326 206.791 356.186 206.197C356.248 206.196 356.303 206.164 356.366 206.163C357.247 206.143 358.099 206.513 358.736 207.191C359.373 207.87 359.742 208.802 359.762 209.783C359.783 210.764 359.453 211.715 358.846 212.426C358.238 213.137 357.403 213.55 356.522 213.576C355.952 213.596 355.388 213.442 354.891 213.132Z" fill="#0066CC"/>
<path d="M333.032 204.296C333.45 206.96 338.151 208.832 343.805 208.506C349.004 208.24 353.254 206.206 354.033 203.797C353.745 203.702 353.445 203.657 353.145 203.665L333.516 204.23C333.353 204.236 333.191 204.259 333.032 204.296V204.296Z" fill="#3F3D56"/>
<path d="M344.841 224.821C344.867 224.813 344.891 224.801 344.914 224.785L347.685 222.765C347.718 222.741 347.746 222.707 347.765 222.668C347.784 222.629 347.794 222.585 347.794 222.541C347.794 222.496 347.784 222.452 347.765 222.413C347.746 222.374 347.719 222.341 347.685 222.316L344.805 220.215C344.778 220.196 344.749 220.182 344.718 220.176C344.686 220.169 344.654 220.169 344.623 220.176C344.592 220.183 344.563 220.197 344.537 220.217C344.51 220.237 344.488 220.262 344.471 220.292C344.453 220.321 344.441 220.354 344.435 220.389C344.429 220.424 344.43 220.459 344.436 220.494C344.443 220.528 344.455 220.561 344.473 220.59C344.491 220.619 344.514 220.644 344.541 220.664L347.113 222.54L344.65 224.336C344.602 224.371 344.567 224.424 344.551 224.484C344.535 224.545 344.538 224.61 344.561 224.669C344.584 224.727 344.625 224.774 344.676 224.802C344.727 224.83 344.786 224.836 344.841 224.821H344.841Z" fill="#BF0628"/>
<path d="M340.464 225.046C340.511 225.033 340.552 225.004 340.584 224.964C340.616 224.925 340.637 224.875 340.644 224.822C340.65 224.769 340.642 224.715 340.621 224.667C340.6 224.619 340.566 224.579 340.525 224.553L337.97 222.922L340.439 220.879C340.465 220.858 340.486 220.832 340.502 220.802C340.519 220.772 340.529 220.738 340.534 220.703C340.538 220.668 340.537 220.633 340.529 220.599C340.521 220.565 340.508 220.533 340.489 220.504C340.47 220.476 340.446 220.452 340.419 220.434C340.392 220.416 340.362 220.404 340.331 220.399C340.3 220.394 340.268 220.396 340.237 220.404C340.206 220.413 340.178 220.428 340.152 220.449L337.388 222.736C337.356 222.762 337.33 222.797 337.313 222.838C337.296 222.878 337.289 222.922 337.291 222.967C337.293 223.011 337.306 223.054 337.327 223.092C337.348 223.13 337.377 223.162 337.412 223.184L340.285 225.018C340.339 225.053 340.403 225.063 340.464 225.046V225.046Z" fill="#BF0628"/>
<path d="M344.565 226.591C344.589 226.585 344.611 226.574 344.631 226.56C344.658 226.542 344.682 226.518 344.701 226.489C344.719 226.461 344.733 226.429 344.74 226.394C344.748 226.36 344.749 226.325 344.744 226.29C344.74 226.255 344.729 226.222 344.712 226.191L340.784 218.998C340.75 218.938 340.697 218.894 340.635 218.877C340.573 218.861 340.507 218.872 340.453 218.909C340.398 218.946 340.359 219.006 340.344 219.075C340.329 219.144 340.339 219.217 340.372 219.278L344.301 226.471C344.327 226.52 344.368 226.558 344.415 226.579C344.463 226.601 344.515 226.605 344.565 226.591Z" fill="#BF0628"/>
<path d="M123.716 139.926H102.43C101.561 139.926 100.858 140.71 100.858 141.677V143.994C100.858 144.961 101.561 145.745 102.43 145.745H123.716C124.584 145.745 125.288 144.961 125.288 143.994V141.677C125.288 140.71 124.584 139.926 123.716 139.926Z" fill="#BF0628"/>
<path d="M136.124 151.563H90.0224C89.154 151.563 88.4501 152.347 88.4501 153.314V155.63C88.4501 156.598 89.154 157.382 90.0224 157.382H136.124C136.992 157.382 137.696 156.598 137.696 155.63V153.314C137.696 152.347 136.992 151.563 136.124 151.563Z" fill="#E6E6E6"/>
<path d="M136.124 163.2H90.0224C89.154 163.2 88.4501 163.984 88.4501 164.951V167.267C88.4501 168.234 89.154 169.018 90.0224 169.018H136.124C136.992 169.018 137.696 168.234 137.696 167.267V164.951C137.696 163.984 136.992 163.2 136.124 163.2Z" fill="#E6E6E6"/>
<path d="M140.031 202.167L140.136 202.534L140.141 202.547L143.284 213.189L146.9 225.453L153.703 248.501L153.769 252.081V252.093L154.274 280.893L152.873 284.798L154.45 291.199C154.45 291.199 153.725 281.523 149.834 287.08C147.631 290.238 145.054 293.469 142.938 296.498C146.021 297.888 149.153 299.144 152.335 300.268C153.021 300.513 153.714 300.746 154.406 300.978C154.555 301.027 154.703 301.076 154.851 301.125C165.398 304.599 176.301 306.55 187.293 306.933C187.865 306.951 188.425 306.963 188.969 306.976C189.162 306.982 189.348 306.988 189.535 306.988C190.151 306.994 190.761 307 191.376 307C192.618 307 193.854 306.98 195.085 306.939C204.195 306.653 213.252 305.289 222.104 302.869C222.043 298.799 221.878 294.044 221.642 288.965C221.532 286.474 219.065 283.775 218.916 281.168C218.812 279.21 221.027 277.368 220.911 275.379C220.164 263.133 219.23 267.834 218.537 259.162C218.466 258.311 218.4 257.497 218.34 256.72C217.894 251.151 217.587 247.668 217.587 247.668L220.543 226.916L225.186 194.334L224.829 193.679L224.428 193.459L199.937 179.958L198.607 176.164C198.22 175.071 197.548 174.132 196.677 173.467C195.807 172.803 194.777 172.444 193.722 172.437L177.589 172.363C176.752 172.359 175.926 172.577 175.18 173C174.433 173.422 173.788 174.037 173.298 174.793L168.929 181.531L140.031 202.167Z" fill="#3F3D56"/>
<path d="M157.423 243.372L153.769 252.081L151.274 258.029L146.983 283.054L144.834 285.593L142.993 276.603L123.727 281.367C123.095 277.456 123.558 281.499 123.168 277.209C123.278 277.087 123.393 276.964 123.508 276.842C123.816 276.524 124.074 276.224 124.069 275.936C123.849 261.138 124.508 235.955 130.014 220.698C130.877 218.207 132.014 215.845 133.399 213.666C133.509 213.501 133.613 213.336 133.718 213.171C136.256 209.211 137.861 205.313 140.136 202.54V202.534C140.15 202.522 140.163 202.507 140.174 202.491C140.183 202.487 140.19 202.481 140.196 202.473L155.824 193.244L156.494 214.223L156.972 229.303L157.423 243.372Z" fill="#3F3D56"/>
<path d="M213.773 245.846L218.337 256.723L219.93 260.511L224.221 285.533L226.362 288.066L228.207 279.077L229.074 278.879L244.709 275.273L249.266 291.392C250.293 289.486 250.698 287.244 250.411 285.044C250.125 282.844 249.166 280.821 247.695 279.318C247.384 279.005 247.125 278.699 247.132 278.411C247.391 261.006 246.435 229.225 237.803 216.145C235.061 211.994 233.416 207.859 231.023 204.971C231.016 204.962 231.016 204.954 231.008 204.954L225.184 194.333L224.828 193.681L224.428 193.458L213.773 245.846Z" fill="#3F3D56"/>
<path d="M186.122 167.25C197.975 167.25 207.585 156.547 207.585 143.345C207.585 130.144 197.975 119.441 186.122 119.441C174.268 119.441 164.659 130.144 164.659 143.345C164.659 156.547 174.268 167.25 186.122 167.25Z" fill="#FFB6B6"/>
<path d="M215.132 126.648C214.965 126.451 214.765 126.292 214.542 126.182C214.32 126.073 214.079 126.014 213.836 126.01L214.159 125.012C214.264 124.698 214.292 124.358 214.241 124.028C214.19 123.697 214.06 123.388 213.866 123.131C213.672 122.874 213.42 122.68 213.136 122.567C212.853 122.455 212.547 122.429 212.251 122.491L211.076 122.743L211.187 121.869C211.229 121.543 211.195 121.21 211.087 120.904C210.979 120.598 210.801 120.328 210.572 120.121C210.342 119.914 210.067 119.778 209.776 119.725C209.484 119.672 209.185 119.704 208.908 119.819C208.656 119.93 208.385 119.976 208.115 119.955C207.845 119.933 207.583 119.845 207.348 119.696C207.111 119.551 206.906 119.351 206.746 119.109C206.587 118.868 206.476 118.59 206.423 118.296L206.013 116.096L205.97 115.978C203.976 112.276 200.142 109.583 195.45 108.596C191.274 107.711 186.992 108.162 182.864 108.585C181.226 108.757 179.376 108.95 177.835 110.002C176.525 110.903 175.417 112.706 175.643 114.524C171.573 113.135 167.209 115.908 165.046 119.406C162.483 123.569 162.064 128.784 161.997 132.861C161.814 142.507 163.601 150.398 167.295 156.321C167.565 156.75 167.633 157.646 168.167 157.946L168.057 157.748C168.654 158.08 169.261 158.617 169.034 159.191C168.384 160.843 172.705 164.497 175.749 165.704C181.303 167.908 188.687 167.721 193.88 166.927L194.063 165.559C195.936 165.274 197.256 164.733 197.627 163.885C198.282 163.263 198.841 162.705 199.328 162.19L199.332 162.184C199.342 162.174 199.361 162.158 199.371 162.147C201.717 159.641 202.261 158.214 202.507 156.042C202.743 153.912 202.324 151.75 201.895 149.803C210.922 151.358 198.34 139.095 206.75 136.723C206.847 136.69 206.945 136.663 207.044 136.643C207.29 136.579 207.535 136.514 207.771 136.439C208.909 136.095 209.999 135.577 211.008 134.899C213.359 133.306 214.135 131.192 215.348 128.81C215.524 128.471 215.597 128.079 215.558 127.69C215.519 127.301 215.37 126.936 215.132 126.648V126.648Z" fill="#0066CC"/>
<path d="M262.033 247.548C262.029 248.487 262.019 249.801 261.98 251.426C261.976 251.652 261.971 251.882 261.966 252.118C261.903 255.107 261.841 257.612 261.739 260.396C261.735 260.589 261.73 260.777 261.72 260.97C261.585 264.854 261.373 269.377 261.007 276.539C260.328 289.768 259.143 278.357 257.953 282.998C257.896 283.228 257.833 283.502 257.775 283.824C257.595 284.992 257.291 286.132 256.87 287.22C256.239 287.638 255.588 288.041 254.948 288.443C253.122 289.575 251.268 290.664 249.399 291.699C248.349 292.279 247.294 292.847 246.234 293.395C246.065 293.48 245.902 293.566 245.738 293.647C240.311 296.442 234.719 298.819 228.999 300.76C227.882 301.136 226.769 301.501 225.642 301.839C224.467 302.203 223.291 302.547 222.102 302.869C213.251 305.289 204.194 306.654 195.084 306.94C193.856 306.983 192.618 307 191.375 307C190.758 307 190.151 306.994 189.535 306.989C189.347 306.989 189.159 306.983 188.971 306.978C188.427 306.962 187.863 306.951 187.295 306.935C176.302 306.553 165.399 304.601 154.853 301.125L154.405 300.98C153.712 300.744 153.023 300.514 152.334 300.267C149.155 299.146 146.022 297.89 142.937 296.501C140.581 295.444 138.253 294.31 135.952 293.1C135.931 293.093 135.911 293.082 135.894 293.067C135.413 292.821 134.926 292.563 134.444 292.3C134.382 292.263 134.314 292.225 134.247 292.188C132.45 291.211 130.673 290.188 128.915 289.119C127.436 285.337 125.355 284.613 124.064 281.286C123.688 280.298 123.417 279.265 123.255 278.207C123.255 278.196 123.25 278.186 123.25 278.169C123.385 280.165 122.677 274.629 123.245 278.148C123.24 278.084 123.236 278.014 123.231 277.933C123.216 277.74 123.197 277.504 123.168 277.209C121.516 259.243 121.622 238.696 120.904 221.765C120.856 220.67 120.806 219.623 120.755 218.621C120.74 218.289 120.721 217.961 120.702 217.639C120.736 217.543 120.774 217.441 120.818 217.344C120.827 217.317 120.838 217.29 120.851 217.264C120.865 217.231 120.882 217.198 120.899 217.167C120.909 217.151 120.923 217.13 120.933 217.114C120.94 217.095 120.948 217.077 120.957 217.06C121.001 216.985 121.049 216.904 121.102 216.829C121.126 216.797 121.145 216.77 121.169 216.743C121.186 216.716 121.205 216.691 121.227 216.668C121.242 216.643 121.26 216.619 121.28 216.599C121.299 216.577 121.318 216.55 121.343 216.524C121.353 216.507 121.366 216.492 121.381 216.481C121.419 216.432 121.461 216.387 121.506 216.347C121.678 216.17 121.862 216.009 122.055 215.864C122.123 215.815 122.195 215.767 122.263 215.713C122.748 215.39 123.259 215.117 123.79 214.898C123.973 214.823 124.156 214.753 124.353 214.678C124.425 214.657 124.493 214.63 124.565 214.603C124.671 214.565 124.777 214.528 124.888 214.501C125.437 214.319 126.029 214.163 126.67 214.018C126.747 214.002 126.829 213.986 126.911 213.965C127.026 213.938 127.147 213.916 127.267 213.895C127.431 213.863 127.6 213.83 127.768 213.798C129.199 213.546 130.822 213.358 132.614 213.235C132.783 213.224 132.951 213.214 133.12 213.203C133.317 213.192 133.515 213.181 133.717 213.171C133.886 213.16 134.059 213.155 134.232 213.149C134.401 213.138 134.574 213.133 134.753 213.128C135.239 213.112 135.74 213.096 136.251 213.085C137.705 213.053 139.237 213.063 140.846 213.101C141.593 213.122 142.354 213.144 143.134 213.181C143.187 213.181 143.235 213.187 143.283 213.187C143.963 213.214 144.646 213.246 145.35 213.289C145.841 213.315 146.337 213.342 146.833 213.374C147.301 213.407 147.773 213.439 148.25 213.476C148.62 213.498 148.991 213.53 149.367 213.557C149.685 213.584 150.003 213.611 150.321 213.632L150.754 213.664C150.99 213.686 151.226 213.702 151.467 213.729C151.997 213.777 152.527 213.825 153.066 213.873C153.601 213.927 154.145 213.981 154.69 214.034C155.234 214.088 155.783 214.147 156.332 214.206C156.39 214.211 156.443 214.217 156.496 214.222C156.997 214.281 157.498 214.335 158.004 214.394C158.119 214.404 158.24 214.415 158.355 214.431C158.837 214.485 159.329 214.548 159.816 214.606C159.965 214.624 160.114 214.641 160.263 214.66C160.645 214.706 161.02 214.746 161.404 214.796C161.91 214.86 162.426 214.92 162.926 214.995C163.317 215.043 163.707 215.091 164.097 215.145C164.709 215.225 165.33 215.311 165.951 215.402C166.187 215.435 166.423 215.467 166.659 215.504C168.432 215.751 170.224 216.025 172.045 216.309C174.805 216.744 177.608 217.216 180.431 217.725C183.258 218.235 186.102 218.773 188.962 219.34C189.684 219.485 190.407 219.63 191.134 219.78C191.461 219.85 191.789 219.919 192.117 219.989C192.675 220.102 193.234 220.22 193.793 220.338C194.352 220.456 194.91 220.574 195.469 220.697C196.134 220.842 196.803 220.987 197.468 221.132C201.847 222.097 206.201 223.128 210.45 224.206C211.148 224.383 211.846 224.565 212.54 224.742C213.927 225.102 215.302 225.467 216.663 225.837C217.039 225.933 217.41 226.035 217.781 226.137C218.706 226.395 219.63 226.652 220.541 226.915L220.7 226.963C221.369 227.146 222.024 227.333 222.68 227.527C224.226 227.977 225.746 228.433 227.241 228.895C228.233 229.2 229.214 229.51 230.184 229.823C231.634 230.289 233.055 230.761 234.437 231.239C234.779 231.357 235.121 231.475 235.459 231.588C236.47 231.936 237.467 232.29 238.435 232.645C239.206 232.923 239.958 233.208 240.699 233.492C241.441 233.776 242.169 234.061 242.881 234.345C243.339 234.528 243.792 234.721 244.245 234.903C244.895 235.171 245.536 235.44 246.162 235.708C246.354 235.788 246.542 235.874 246.73 235.955C246.851 236.014 246.966 236.062 247.082 236.115C247.308 236.217 247.539 236.314 247.761 236.416C247.987 236.512 248.209 236.614 248.43 236.722C248.647 236.818 248.869 236.92 249.081 237.022C249.298 237.119 249.509 237.221 249.721 237.328C249.9 237.408 250.073 237.494 250.242 237.58C250.584 237.746 250.926 237.913 251.258 238.084C251.422 238.17 251.586 238.251 251.749 238.336L252.125 238.53C252.178 238.562 252.231 238.589 252.284 238.615C252.404 238.68 252.53 238.75 252.65 238.814C252.929 238.959 253.204 239.114 253.474 239.259C253.835 239.463 254.187 239.667 254.524 239.865C254.866 240.069 255.198 240.273 255.516 240.472C255.569 240.504 255.617 240.536 255.67 240.568C255.742 240.611 255.815 240.659 255.887 240.702C256.133 240.858 256.369 241.019 256.605 241.174C257.067 241.491 257.505 241.802 257.915 242.113C258.006 242.183 258.093 242.253 258.185 242.317C258.488 242.558 258.777 242.795 259.047 243.036C259.047 243.041 259.047 243.041 259.052 243.041C259.143 243.116 259.23 243.197 259.317 243.272C259.389 243.347 259.466 243.411 259.538 243.487C259.789 243.728 260.02 243.959 260.232 244.195C260.303 244.268 260.37 244.345 260.434 244.425C260.462 244.451 260.488 244.48 260.511 244.511C260.607 244.619 260.694 244.726 260.776 244.833C260.789 244.848 260.8 244.864 260.81 244.881C260.925 245.032 261.031 245.182 261.133 245.332C261.181 245.407 261.234 245.482 261.277 245.557C261.335 245.649 261.393 245.745 261.441 245.836C261.484 245.911 261.523 245.992 261.561 246.067C261.663 246.26 261.75 246.463 261.821 246.673C261.875 246.816 261.919 246.963 261.951 247.113C261.988 247.256 262.015 247.401 262.033 247.548V247.548Z" fill="#0066CC"/>
<path opacity="0.2" d="M262.033 247.548C262.029 248.487 262.019 249.801 261.98 251.426C261.976 251.652 261.966 251.882 261.961 252.118C261.913 254.398 261.841 257.215 261.74 260.396C261.735 260.589 261.73 260.777 261.72 260.97C261.585 264.854 261.374 269.377 261.007 276.539C260.328 289.768 259.143 278.357 257.954 282.998C254.649 280.734 251.027 278.363 247.154 275.927C246.456 275.487 245.751 275.045 245.04 274.602C237.294 269.79 228.643 264.747 219.611 259.752C219.255 259.554 218.894 259.355 218.537 259.162C197.849 247.773 175.267 236.695 156.973 229.302C153.442 227.875 150.07 226.588 146.901 225.456C140.225 223.079 134.454 221.416 130.013 220.697C125.389 219.946 122.195 220.214 120.904 221.765C120.856 220.67 120.806 219.623 120.755 218.621C120.736 218.289 120.716 217.961 120.697 217.639C120.727 217.551 120.765 217.467 120.803 217.382C120.808 217.369 120.812 217.357 120.818 217.344C120.827 217.317 120.838 217.29 120.851 217.264C120.865 217.231 120.882 217.198 120.899 217.167C120.915 217.129 120.935 217.093 120.957 217.06C121.001 216.985 121.049 216.904 121.102 216.829C121.141 216.773 121.183 216.719 121.227 216.668C121.242 216.643 121.26 216.619 121.28 216.599C121.299 216.577 121.319 216.55 121.343 216.524C121.353 216.507 121.366 216.492 121.381 216.481C121.419 216.432 121.461 216.387 121.506 216.347C121.678 216.17 121.862 216.009 122.056 215.864C122.123 215.815 122.195 215.767 122.263 215.713C122.748 215.39 123.259 215.117 123.79 214.898C123.973 214.823 124.156 214.753 124.353 214.678C124.425 214.657 124.493 214.63 124.565 214.603C124.671 214.565 124.777 214.528 124.888 214.501C125.437 214.319 126.029 214.163 126.67 214.018C126.863 213.975 127.065 213.932 127.267 213.895C127.431 213.863 127.6 213.83 127.768 213.798C129.199 213.546 130.822 213.358 132.614 213.235C132.783 213.224 132.951 213.213 133.12 213.203C133.317 213.192 133.515 213.181 133.717 213.171C133.886 213.16 134.059 213.154 134.233 213.149C134.401 213.138 134.575 213.133 134.753 213.128C135.239 213.112 135.74 213.095 136.251 213.085C137.705 213.058 139.237 213.069 140.846 213.106C141.593 213.122 142.354 213.149 143.134 213.187C143.182 213.187 143.235 213.192 143.283 213.192C143.963 213.214 144.651 213.251 145.35 213.289C145.841 213.315 146.337 213.342 146.833 213.374C147.301 213.407 147.773 213.439 148.25 213.476C148.62 213.498 148.991 213.53 149.367 213.557C149.685 213.584 150.003 213.61 150.321 213.632C150.701 213.664 151.082 213.696 151.467 213.729C151.997 213.777 152.527 213.825 153.066 213.873C153.601 213.927 154.145 213.981 154.69 214.034C155.234 214.088 155.783 214.147 156.332 214.206C156.39 214.211 156.443 214.217 156.496 214.222C156.997 214.281 157.498 214.335 158.004 214.394C160.807 214.71 163.692 215.08 166.66 215.504C168.432 215.756 170.227 216.026 172.045 216.314C174.805 216.749 177.608 217.221 180.431 217.725C183.259 218.235 186.102 218.773 188.962 219.34C189.684 219.485 190.407 219.63 191.134 219.78C192.02 219.962 192.907 220.148 193.793 220.338C194.352 220.456 194.91 220.574 195.469 220.697C196.134 220.842 196.803 220.987 197.468 221.132C201.847 222.097 206.201 223.127 210.45 224.206C211.148 224.383 211.847 224.565 212.54 224.742C213.927 225.102 215.302 225.467 216.663 225.837C217.039 225.939 217.41 226.041 217.781 226.142C218.711 226.4 219.631 226.657 220.541 226.915V226.92C220.594 226.931 220.647 226.947 220.7 226.963C221.365 227.151 222.025 227.339 222.68 227.532C224.226 227.983 225.746 228.437 227.241 228.895C228.234 229.206 229.216 229.512 230.184 229.823C231.634 230.295 233.055 230.767 234.438 231.239C234.78 231.357 235.122 231.475 235.459 231.588C236.47 231.942 237.463 232.294 238.436 232.644C239.206 232.923 239.958 233.208 240.7 233.492C241.441 233.776 242.169 234.061 242.882 234.345C243.344 234.528 243.797 234.715 244.245 234.898C244.9 235.166 245.536 235.434 246.162 235.708C246.355 235.788 246.542 235.874 246.73 235.955C247.082 236.105 247.424 236.26 247.761 236.416C247.987 236.512 248.209 236.614 248.431 236.722C248.647 236.818 248.869 236.92 249.081 237.022C249.298 237.119 249.51 237.221 249.722 237.328C249.9 237.408 250.073 237.494 250.242 237.58C250.584 237.746 250.926 237.913 251.258 238.084C251.422 238.17 251.586 238.251 251.749 238.336L252.125 238.53C252.178 238.562 252.231 238.589 252.284 238.615C252.694 238.83 253.088 239.045 253.474 239.259C253.835 239.463 254.187 239.667 254.524 239.865C254.924 240.101 255.304 240.332 255.67 240.568C255.743 240.611 255.815 240.659 255.887 240.702C256.133 240.858 256.369 241.019 256.605 241.174C257.067 241.491 257.506 241.802 257.915 242.113C258.32 242.424 258.695 242.73 259.047 243.036C259.047 243.041 259.047 243.041 259.052 243.041C259.22 243.191 259.384 243.342 259.538 243.487C259.789 243.728 260.02 243.959 260.232 244.195C260.303 244.268 260.37 244.345 260.434 244.425C260.462 244.451 260.488 244.48 260.511 244.511C260.612 244.635 260.714 244.758 260.81 244.881C260.926 245.032 261.032 245.182 261.133 245.332C261.181 245.407 261.234 245.482 261.277 245.557C261.335 245.649 261.393 245.745 261.441 245.836C261.484 245.911 261.523 245.992 261.561 246.067C261.664 246.26 261.751 246.463 261.821 246.673C261.874 246.816 261.918 246.963 261.952 247.113C261.988 247.256 262.015 247.401 262.033 247.548V247.548Z" fill="black"/>
</g>
<defs>
<clipPath id="clip0_47_285">
<rect width="379" height="307" fill="white"/>
</clipPath>
</defs>
</svg>
