<svg width="135" height="40" viewBox="0 0 135 40" fill="none" xmlns="http://www.w3.org/2000/svg">
<path d="M20.8274 15.5433H16.843C16.7294 14.8899 16.5199 14.3111 16.2145 13.8068C15.9091 13.2955 15.5291 12.8622 15.0746 12.5071C14.62 12.152 14.1016 11.8857 13.5192 11.7081C12.9439 11.5234 12.3224 11.4311 11.6548 11.4311C10.4688 11.4311 9.41761 11.7294 8.50142 12.326C7.58523 12.9155 6.8679 13.782 6.34943 14.9254C5.83097 16.0618 5.57173 17.4503 5.57173 19.0909C5.57173 20.7599 5.83097 22.1662 6.34943 23.3097C6.875 24.446 7.59233 25.3054 8.50142 25.8878C9.41761 26.4631 10.4652 26.7507 11.6442 26.7507C12.2976 26.7507 12.9084 26.6655 13.4766 26.495C14.0518 26.3175 14.5668 26.0582 15.0213 25.7173C15.483 25.3764 15.87 24.9574 16.1825 24.4602C16.5021 23.9631 16.7223 23.3949 16.843 22.7557L20.8274 22.777C20.6783 23.8139 20.3551 24.7869 19.858 25.696C19.3679 26.6051 18.7251 27.4077 17.9297 28.1037C17.1342 28.7926 16.2038 29.3324 15.1385 29.723C14.0732 30.1065 12.8906 30.2983 11.5909 30.2983C9.6733 30.2983 7.96165 29.8544 6.45597 28.9666C4.95028 28.0788 3.7642 26.7969 2.89773 25.1207C2.03125 23.4446 1.59801 21.4347 1.59801 19.0909C1.59801 16.7401 2.0348 14.7301 2.90838 13.0611C3.78196 11.3849 4.97159 10.103 6.47727 9.2152C7.98295 8.32741 9.6875 7.88352 11.5909 7.88352C12.8054 7.88352 13.9347 8.05398 14.9787 8.39489C16.0227 8.7358 16.9531 9.23651 17.7699 9.89702C18.5866 10.5504 19.2578 11.353 19.7834 12.3047C20.3161 13.2493 20.6641 14.3288 20.8274 15.5433ZM28.9853 30.3303C27.9483 30.3303 27.0144 30.1456 26.1834 29.7763C25.3596 29.3999 24.7061 28.8459 24.2232 28.1143C23.7473 27.3828 23.5094 26.4808 23.5094 25.4084C23.5094 24.4851 23.6799 23.7216 24.0208 23.1179C24.3617 22.5142 24.8269 22.0312 25.4164 21.669C26.0059 21.3068 26.6699 21.0334 27.4086 20.8487C28.1543 20.657 28.9249 20.5185 29.7203 20.4332C30.6792 20.3338 31.4569 20.245 32.0534 20.1669C32.65 20.0817 33.0833 19.9538 33.3532 19.7834C33.6301 19.6058 33.7686 19.3324 33.7686 18.9631V18.8991C33.7686 18.0966 33.5307 17.4751 33.0549 17.0348C32.579 16.5945 31.8936 16.3743 30.9988 16.3743C30.0542 16.3743 29.3049 16.5803 28.7509 16.9922C28.204 17.4041 27.8347 17.8906 27.6429 18.4517L24.0421 17.9403C24.3262 16.946 24.7949 16.1151 25.4483 15.4474C26.1017 14.7727 26.9007 14.2685 27.8453 13.9347C28.79 13.5938 29.834 13.4233 30.9775 13.4233C31.7658 13.4233 32.5506 13.5156 33.3319 13.7003C34.1131 13.8849 34.8269 14.1903 35.4732 14.6165C36.1195 15.0355 36.638 15.6072 37.0286 16.3317C37.4263 17.0561 37.6252 17.9616 37.6252 19.0483V30H33.9178V27.7521H33.79C33.5556 28.2067 33.2253 28.6328 32.7992 29.0305C32.3801 29.4212 31.851 29.7372 31.2118 29.9787C30.5797 30.2131 29.8375 30.3303 28.9853 30.3303ZM29.9867 27.4964C30.7608 27.4964 31.432 27.3437 32.0002 27.0384C32.5684 26.7259 33.0051 26.3139 33.3105 25.8026C33.623 25.2912 33.7793 24.7337 33.7793 24.13V22.2017C33.6586 22.3011 33.4526 22.3935 33.1614 22.4787C32.8773 22.5639 32.5577 22.6385 32.2026 22.7024C31.8475 22.7663 31.4959 22.8232 31.1479 22.8729C30.7999 22.9226 30.498 22.9652 30.2424 23.0007C29.6671 23.0788 29.1522 23.2067 28.6976 23.3842C28.2431 23.5618 27.8844 23.8104 27.6216 24.13C27.3588 24.4425 27.2275 24.8473 27.2275 25.3445C27.2275 26.0547 27.4867 26.5909 28.0051 26.9531C28.5236 27.3153 29.1841 27.4964 29.9867 27.4964ZM41.503 30V13.6364H45.2424V16.3636H45.4128C45.7111 15.419 46.2225 14.6911 46.9469 14.1797C47.6784 13.6612 48.513 13.402 49.4505 13.402C49.6635 13.402 49.9015 13.4126 50.1642 13.4339C50.4341 13.4482 50.6578 13.473 50.8354 13.5085V17.0561C50.6721 16.9993 50.4128 16.9496 50.0577 16.907C49.7097 16.8572 49.3723 16.8324 49.0456 16.8324C48.3425 16.8324 47.7104 16.9851 47.1493 17.2905C46.5953 17.5888 46.1586 18.0043 45.839 18.5369C45.5194 19.0696 45.3596 19.6839 45.3596 20.38V30H41.503ZM58.7962 30.2876C57.5107 30.2876 56.3601 29.9574 55.3445 29.2969C54.3288 28.6364 53.5263 27.6776 52.9368 26.4205C52.3473 25.1634 52.0526 23.6364 52.0526 21.8395C52.0526 20.0213 52.3509 18.4872 52.9474 17.2372C53.5511 15.9801 54.3643 15.032 55.3871 14.3928C56.4098 13.7464 57.5497 13.4233 58.8068 13.4233C59.7656 13.4233 60.554 13.5866 61.1719 13.9134C61.7898 14.233 62.2798 14.62 62.642 15.0746C63.0043 15.522 63.2848 15.9446 63.4837 16.3423H63.6435V8.18182H67.5107V30H63.718V27.4219H63.4837C63.2848 27.8196 62.9972 28.2422 62.6207 28.6896C62.2443 29.13 61.7472 29.5064 61.1293 29.8189C60.5114 30.1314 59.7337 30.2876 58.7962 30.2876ZM59.8722 27.1236C60.6889 27.1236 61.3849 26.9034 61.9602 26.4631C62.5355 26.0156 62.9723 25.3942 63.2706 24.5987C63.5689 23.8033 63.718 22.8764 63.718 21.8182C63.718 20.7599 63.5689 19.8402 63.2706 19.0589C62.9794 18.2777 62.5462 17.6705 61.9709 17.2372C61.4027 16.804 60.7031 16.5874 59.8722 16.5874C59.0128 16.5874 58.2955 16.8111 57.7202 17.2585C57.1449 17.706 56.7116 18.3239 56.4205 19.1122C56.1293 19.9006 55.9837 20.8026 55.9837 21.8182C55.9837 22.8409 56.1293 23.7536 56.4205 24.5561C56.7188 25.3516 57.1555 25.9801 57.7308 26.4418C58.3132 26.8963 59.027 27.1236 59.8722 27.1236ZM71.6202 30V13.6364H75.4767V30H71.6202ZM73.5591 11.3139C72.9483 11.3139 72.4228 11.1115 71.9824 10.7067C71.5421 10.2947 71.3219 9.80114 71.3219 9.22585C71.3219 8.64347 71.5421 8.14986 71.9824 7.74503C72.4228 7.3331 72.9483 7.12713 73.5591 7.12713C74.177 7.12713 74.7026 7.3331 75.1358 7.74503C75.5762 8.14986 75.7963 8.64347 75.7963 9.22585C75.7963 9.80114 75.5762 10.2947 75.1358 10.7067C74.7026 11.1115 74.177 11.3139 73.5591 11.3139ZM86.5803 30.3196C84.9822 30.3196 83.5973 29.968 82.4254 29.2649C81.2536 28.5618 80.3445 27.5781 79.6982 26.3139C79.0589 25.0497 78.7393 23.5724 78.7393 21.8821C78.7393 20.1918 79.0589 18.7109 79.6982 17.4396C80.3445 16.1683 81.2536 15.1811 82.4254 14.478C83.5973 13.7749 84.9822 13.4233 86.5803 13.4233C88.1783 13.4233 89.5632 13.7749 90.7351 14.478C91.907 15.1811 92.8125 16.1683 93.4517 17.4396C94.098 18.7109 94.4212 20.1918 94.4212 21.8821C94.4212 23.5724 94.098 25.0497 93.4517 26.3139C92.8125 27.5781 91.907 28.5618 90.7351 29.2649C89.5632 29.968 88.1783 30.3196 86.5803 30.3196ZM86.6016 27.2301C87.468 27.2301 88.1925 26.9922 88.7749 26.5163C89.3572 26.0334 89.7905 25.3871 90.0746 24.5774C90.3658 23.7678 90.5114 22.8658 90.5114 21.8714C90.5114 20.87 90.3658 19.9645 90.0746 19.1548C89.7905 18.3381 89.3572 17.6882 88.7749 17.2053C88.1925 16.7223 87.468 16.4808 86.6016 16.4808C85.7138 16.4808 84.9751 16.7223 84.3857 17.2053C83.8033 17.6882 83.3665 18.3381 83.0753 19.1548C82.7912 19.9645 82.6491 20.87 82.6491 21.8714C82.6491 22.8658 82.7912 23.7678 83.0753 24.5774C83.3665 25.3871 83.8033 26.0334 84.3857 26.5163C84.9751 26.9922 85.7138 27.2301 86.6016 27.2301Z" fill="black"/>
<path d="M97.353 6.9H102.732C104.602 6.9 105.966 7.34 106.824 8.22C107.682 9.078 108.111 10.409 108.111 12.213V13.632C108.111 16.03 107.319 17.548 105.735 18.186V18.252C106.615 18.516 107.231 19.055 107.583 19.869C107.957 20.683 108.144 21.772 108.144 23.136V27.195C108.144 27.855 108.166 28.394 108.21 28.812C108.254 29.208 108.364 29.604 108.54 30H104.844C104.712 29.626 104.624 29.274 104.58 28.944C104.536 28.614 104.514 28.02 104.514 27.162V22.938C104.514 21.882 104.338 21.145 103.986 20.727C103.656 20.309 103.073 20.1 102.237 20.1H100.983V30H97.353V6.9ZM102.303 16.8C103.029 16.8 103.568 16.613 103.92 16.239C104.294 15.865 104.481 15.238 104.481 14.358V12.576C104.481 11.74 104.327 11.135 104.019 10.761C103.733 10.387 103.271 10.2 102.633 10.2H100.983V16.8H102.303ZM110.663 6.9H120.563V10.2H114.293V16.305H119.276V19.605H114.293V26.7H120.563V30H110.663V6.9ZM122.651 6.9H128.195C129.999 6.9 131.352 7.384 132.254 8.352C133.156 9.32 133.607 10.739 133.607 12.609V24.291C133.607 26.161 133.156 27.58 132.254 28.548C131.352 29.516 129.999 30 128.195 30H122.651V6.9ZM128.129 26.7C128.723 26.7 129.174 26.524 129.482 26.172C129.812 25.82 129.977 25.248 129.977 24.456V12.444C129.977 11.652 129.812 11.08 129.482 10.728C129.174 10.376 128.723 10.2 128.129 10.2H126.281V26.7H128.129Z" fill="#BF0628"/>
</svg>
